<svg width="22" height="16" viewBox="0 0 22 16" fill="none"
  xmlns="http://www.w3.org/2000/svg">
  <path fill-rule="evenodd" clip-rule="evenodd" d="M1.75 2.375C1.75 1.61561 2.36561 1 3.125 1H18.875C19.6344 1 20.25 1.61561 20.25 2.375V13.625C20.25 14.3844 19.6344 15 18.875 15H3.125C2.36561 15 1.75 14.3844 1.75 13.625V2.375ZM3.125 0C1.81332 0 0.75 1.06332 0.75 2.375V13.625C0.75 14.9367 1.81332 16 3.125 16H18.875C20.1867 16 21.25 14.9367 21.25 13.625V2.375C21.25 1.06332 20.1867 0 18.875 0H3.125ZM4.55697 3.10532C4.339 2.93579 4.02486 2.97506 3.85532 3.19303C3.68579 3.411 3.72506 3.72514 3.94303 3.89468L10.693 9.14468C10.8736 9.28511 11.1264 9.28511 11.307 9.14468L18.057 3.89468C18.2749 3.72514 18.3142 3.411 18.1447 3.19303C17.9751 2.97506 17.661 2.93579 17.443 3.10532L11 8.11657L4.55697 3.10532Z" fill="#1B1B1B"/>
</svg>
