<svg width="120" height="120" viewBox="0 0 120 120" fill="none"
    xmlns="http://www.w3.org/2000/svg">
    <g clip-path="url(#clip0_3_5014)">
        <path d="M60 116C90.9279 116 116 90.9279 116 60C116 29.0721 90.9279 4 60 4C29.0721 4 4 29.0721 4 60C4 90.9279 29.0721 116 60 116Z" fill="#C3BEB5"/>
        <path d="M59.9185 42.3853H31.4094V47.4762H59.9185V42.3853Z" fill="white"/>
        <path d="M64.6836 42.355H63.1564V77.5739H64.6836V42.355Z" fill="white"/>
        <path d="M51.7833 57.4546H31.4197V62.5353H51.7833V57.4546Z" fill="white"/>
        <path d="M59.9185 72.5234H31.4094V77.6143H59.9185V72.5234Z" fill="white"/>
        <path d="M96.8073 59.9998C96.8073 64.8973 94.9033 69.3365 91.8284 72.5234C88.8146 75.6696 84.6502 77.6143 80.0582 77.6143H67.9215V72.5234H80.0582C86.4931 72.5234 91.7164 66.9031 91.7164 59.9998C91.7164 53.0965 86.4931 47.4762 80.0582 47.4762H67.9215V42.3853H80.0582C84.6502 42.3853 88.8146 44.33 91.8284 47.4762C94.9033 50.6631 96.8073 55.1023 96.8073 59.9998Z" fill="white"/>
    </g>
    <defs>
        <clipPath id="clip0_3_5014">
            <rect width="112" height="112" fill="white" transform="translate(4 4)"/>
        </clipPath>
    </defs>
</svg>
